<svg width="319" height="59" viewBox="0 0 319 59" fill="none" xmlns="http://www.w3.org/2000/svg">
<rect x="1" y="1" width="48" height="48" rx="4" stroke="#5A9CFF" stroke-width="2"/>
<rect x="10" y="10" width="48" height="48" rx="4" stroke="#5A9CFF" stroke-width="2"/>
<rect x="9" y="9" width="41" height="41" rx="5" fill="#5A9CFF"/>
<path d="M71.176 27.92C71.176 26.7253 71.3813 25.54 71.792 24.364C72.2213 23.188 72.8373 22.124 73.64 21.172C74.4427 20.2013 75.432 19.436 76.608 18.876C77.784 18.2973 79.1187 18.008 80.612 18.008C82.3667 18.008 83.8787 18.4187 85.148 19.24C86.4173 20.0427 87.3507 21.0787 87.948 22.348L86.408 23.3C85.9787 22.4227 85.4373 21.732 84.784 21.228C84.1307 20.7053 83.4307 20.332 82.684 20.108C81.956 19.884 81.228 19.772 80.5 19.772C79.3053 19.772 78.2507 20.0147 77.336 20.5C76.4213 20.9667 75.6467 21.6013 75.012 22.404C74.396 23.2067 73.9293 24.0933 73.612 25.064C73.2947 26.0347 73.136 27.024 73.136 28.032C73.136 29.1333 73.3227 30.188 73.696 31.196C74.0693 32.1853 74.592 33.072 75.264 33.856C75.936 34.64 76.72 35.2653 77.616 35.732C78.5307 36.18 79.52 36.404 80.584 36.404C81.3307 36.404 82.096 36.2733 82.88 36.012C83.664 35.7507 84.392 35.3493 85.064 34.808C85.736 34.2667 86.2867 33.5667 86.716 32.708L88.34 33.548C87.9107 34.5373 87.2667 35.3773 86.408 36.068C85.568 36.7587 84.616 37.2813 83.552 37.636C82.5067 37.9907 81.48 38.168 80.472 38.168C79.1093 38.168 77.8587 37.8787 76.72 37.3C75.5813 36.7027 74.592 35.9187 73.752 34.948C72.9307 33.9587 72.296 32.8573 71.848 31.644C71.4 30.412 71.176 29.1707 71.176 27.92ZM97.5953 38.28C96.1953 38.28 94.9446 37.9347 93.8433 37.244C92.742 36.5533 91.874 35.6293 91.2393 34.472C90.6046 33.3147 90.2873 32.0453 90.2873 30.664C90.2873 29.3013 90.5953 28.0507 91.2113 26.912C91.846 25.7733 92.714 24.868 93.8153 24.196C94.9166 23.5053 96.1673 23.16 97.5673 23.16C99.0046 23.16 100.265 23.5053 101.347 24.196C102.43 24.8867 103.27 25.8013 103.867 26.94C104.483 28.06 104.791 29.292 104.791 30.636C104.791 30.9347 104.782 31.1867 104.763 31.392H92.2753C92.3686 32.4373 92.6673 33.3707 93.1713 34.192C93.6753 34.9947 94.3193 35.6387 95.1033 36.124C95.8873 36.5907 96.746 36.824 97.6793 36.824C98.6313 36.824 99.5273 36.5813 100.367 36.096C101.207 35.6107 101.805 34.976 102.159 34.192L103.811 34.64C103.513 35.3493 103.046 35.984 102.411 36.544C101.795 37.0853 101.077 37.5147 100.255 37.832C99.434 38.1307 98.5473 38.28 97.5953 38.28ZM92.2193 30.02H102.999C102.925 28.9747 102.635 28.0507 102.131 27.248C101.627 26.4267 100.983 25.792 100.199 25.344C99.4153 24.8773 98.5473 24.644 97.5953 24.644C96.6433 24.644 95.7753 24.8773 94.9913 25.344C94.2073 25.792 93.5633 26.4267 93.0593 27.248C92.574 28.0507 92.294 28.9747 92.2193 30.02ZM119.993 38H118.089V29.852C118.089 28.1347 117.828 26.884 117.305 26.1C116.801 25.2973 116.017 24.896 114.953 24.896C114.206 24.896 113.469 25.0827 112.741 25.456C112.013 25.8107 111.369 26.3053 110.809 26.94C110.268 27.556 109.876 28.2653 109.633 29.068V38H107.729V23.412H109.465V26.716C110.044 25.652 110.893 24.7933 112.013 24.14C113.133 23.4867 114.346 23.16 115.653 23.16C116.736 23.16 117.594 23.4213 118.229 23.944C118.864 24.448 119.312 25.176 119.573 26.128C119.853 27.0613 119.993 28.172 119.993 29.46V38ZM130.916 37.3C130.692 37.3933 130.282 37.5613 129.684 37.804C129.087 38.0467 128.396 38.168 127.612 38.168C126.791 38.168 126.072 37.9347 125.456 37.468C124.84 37.0013 124.532 36.3013 124.532 35.368V24.924H122.516V23.412H124.532V18.484H126.436V23.412H129.796V24.924H126.436V34.836C126.474 35.3773 126.66 35.7787 126.996 36.04C127.351 36.2827 127.752 36.404 128.2 36.404C128.723 36.404 129.19 36.32 129.6 36.152C130.03 35.9653 130.3 35.8347 130.412 35.76L130.916 37.3ZM133.155 31.98V23.412H135.059V31.644C135.059 34.948 136.189 36.6 138.447 36.6C139.567 36.6 140.613 36.236 141.583 35.508C142.573 34.78 143.282 33.8093 143.711 32.596V23.412H145.615V35.704C145.615 36.208 145.839 36.4693 146.287 36.488V38C146.063 38.0373 145.886 38.056 145.755 38.056C145.643 38.056 145.522 38.056 145.391 38.056C144.999 38.0187 144.663 37.8693 144.383 37.608C144.122 37.3467 143.991 37.0293 143.991 36.656L143.935 34.696C143.301 35.8347 142.433 36.7213 141.331 37.356C140.249 37.972 139.073 38.28 137.803 38.28C134.705 38.28 133.155 36.18 133.155 31.98ZM157.2 25.092C155.931 25.1293 154.811 25.484 153.84 26.156C152.888 26.828 152.216 27.752 151.824 28.928V38H149.92V23.412H151.712V26.912C152.216 25.8853 152.879 25.0547 153.7 24.42C154.54 23.7853 155.427 23.4307 156.36 23.356C156.547 23.3373 156.706 23.328 156.836 23.328C156.967 23.328 157.088 23.3373 157.2 23.356V25.092ZM159.737 20.36V17.56H161.641V20.36H159.737ZM159.737 38V23.412H161.641V38H159.737ZM172.05 38.28C170.65 38.28 169.4 37.9347 168.298 37.244C167.216 36.5533 166.366 35.6387 165.75 34.5C165.134 33.3427 164.826 32.092 164.826 30.748C164.826 29.3853 165.134 28.1347 165.75 26.996C166.385 25.8387 167.244 24.9147 168.326 24.224C169.428 23.5147 170.669 23.16 172.05 23.16C173.45 23.16 174.692 23.5147 175.774 24.224C176.876 24.9147 177.734 25.8387 178.35 26.996C178.985 28.1347 179.302 29.3853 179.302 30.748C179.302 32.092 178.994 33.3427 178.378 34.5C177.762 35.6387 176.904 36.5533 175.802 37.244C174.72 37.9347 173.469 38.28 172.05 38.28ZM166.758 30.776C166.758 31.8587 166.992 32.848 167.458 33.744C167.944 34.6213 168.588 35.3213 169.39 35.844C170.193 36.348 171.08 36.6 172.05 36.6C173.021 36.6 173.908 36.3387 174.71 35.816C175.513 35.2933 176.157 34.584 176.642 33.688C177.128 32.792 177.37 31.8027 177.37 30.72C177.37 29.6373 177.128 28.648 176.642 27.752C176.157 26.856 175.513 26.1467 174.71 25.624C173.908 25.1013 173.021 24.84 172.05 24.84C171.098 24.84 170.221 25.1107 169.418 25.652C168.616 26.1747 167.972 26.884 167.486 27.78C167.001 28.676 166.758 29.6747 166.758 30.776ZM194.751 38H192.847V29.852C192.847 28.1347 192.585 26.884 192.063 26.1C191.559 25.2973 190.775 24.896 189.711 24.896C188.964 24.896 188.227 25.0827 187.499 25.456C186.771 25.8107 186.127 26.3053 185.567 26.94C185.025 27.556 184.633 28.2653 184.391 29.068V38H182.487V23.412H184.223V26.716C184.801 25.652 185.651 24.7933 186.771 24.14C187.891 23.4867 189.104 23.16 190.411 23.16C191.493 23.16 192.352 23.4213 192.987 23.944C193.621 24.448 194.069 25.176 194.331 26.128C194.611 27.0613 194.751 28.172 194.751 29.46V38ZM223.952 38V21.816L216.756 34.388H215.524L208.3 21.816V38H206.34V18.12H208.356L216.112 31.728L223.924 18.12H225.912V38H223.952ZM229.19 33.8C229.19 32.904 229.451 32.1293 229.974 31.476C230.496 30.804 231.215 30.2813 232.13 29.908C233.063 29.5347 234.136 29.348 235.35 29.348C236.059 29.348 236.796 29.4133 237.562 29.544C238.327 29.656 239.008 29.8147 239.606 30.02V28.788C239.606 27.556 239.242 26.576 238.514 25.848C237.786 25.12 236.778 24.756 235.49 24.756C234.724 24.756 233.959 24.9053 233.194 25.204C232.428 25.484 231.635 25.904 230.814 26.464L230.086 25.12C231.038 24.4667 231.971 23.9813 232.886 23.664C233.8 23.328 234.734 23.16 235.686 23.16C237.478 23.16 238.896 23.6733 239.942 24.7C240.987 25.7267 241.51 27.1453 241.51 28.956V35.704C241.51 36.208 241.743 36.4693 242.21 36.488V38C241.799 38.056 241.51 38.0747 241.342 38.056C240.875 38.0373 240.52 37.888 240.278 37.608C240.035 37.328 239.904 37.0293 239.886 36.712L239.858 35.648C239.204 36.488 238.355 37.1413 237.31 37.608C236.264 38.056 235.2 38.28 234.118 38.28C233.166 38.28 232.316 38.084 231.57 37.692C230.823 37.2813 230.235 36.74 229.806 36.068C229.395 35.3773 229.19 34.6213 229.19 33.8ZM238.962 34.92C239.391 34.416 239.606 33.9493 239.606 33.52V31.392C238.318 30.888 236.974 30.636 235.574 30.636C234.211 30.636 233.11 30.9067 232.27 31.448C231.43 31.9893 231.01 32.7267 231.01 33.66C231.01 34.4627 231.318 35.1907 231.934 35.844C232.568 36.4973 233.446 36.824 234.566 36.824C235.48 36.824 236.33 36.6467 237.114 36.292C237.916 35.9373 238.532 35.48 238.962 34.92ZM257.887 38H255.983V29.852C255.983 28.1347 255.722 26.884 255.199 26.1C254.695 25.2973 253.911 24.896 252.847 24.896C252.101 24.896 251.363 25.0827 250.635 25.456C249.907 25.8107 249.263 26.3053 248.703 26.94C248.162 27.556 247.77 28.2653 247.527 29.068V38H245.623V23.412H247.359V26.716C247.938 25.652 248.787 24.7933 249.907 24.14C251.027 23.4867 252.241 23.16 253.547 23.16C254.63 23.16 255.489 23.4213 256.123 23.944C256.758 24.448 257.206 25.176 257.467 26.128C257.747 27.0613 257.887 28.172 257.887 29.46V38ZM260.772 33.8C260.772 32.904 261.033 32.1293 261.556 31.476C262.078 30.804 262.797 30.2813 263.712 29.908C264.645 29.5347 265.718 29.348 266.932 29.348C267.641 29.348 268.378 29.4133 269.144 29.544C269.909 29.656 270.59 29.8147 271.188 30.02V28.788C271.188 27.556 270.824 26.576 270.096 25.848C269.368 25.12 268.36 24.756 267.072 24.756C266.306 24.756 265.541 24.9053 264.776 25.204C264.01 25.484 263.217 25.904 262.396 26.464L261.668 25.12C262.62 24.4667 263.553 23.9813 264.468 23.664C265.382 23.328 266.316 23.16 267.268 23.16C269.06 23.16 270.478 23.6733 271.524 24.7C272.569 25.7267 273.092 27.1453 273.092 28.956V35.704C273.092 36.208 273.325 36.4693 273.792 36.488V38C273.381 38.056 273.092 38.0747 272.924 38.056C272.457 38.0373 272.102 37.888 271.86 37.608C271.617 37.328 271.486 37.0293 271.468 36.712L271.44 35.648C270.786 36.488 269.937 37.1413 268.892 37.608C267.846 38.056 266.782 38.28 265.7 38.28C264.748 38.28 263.898 38.084 263.152 37.692C262.405 37.2813 261.817 36.74 261.388 36.068C260.977 35.3773 260.772 34.6213 260.772 33.8ZM270.544 34.92C270.973 34.416 271.188 33.9493 271.188 33.52V31.392C269.9 30.888 268.556 30.636 267.156 30.636C265.793 30.636 264.692 30.9067 263.852 31.448C263.012 31.9893 262.592 32.7267 262.592 33.66C262.592 34.4627 262.9 35.1907 263.516 35.844C264.15 36.4973 265.028 36.824 266.148 36.824C267.062 36.824 267.912 36.6467 268.696 36.292C269.498 35.9373 270.114 35.48 270.544 34.92ZM283.057 38.196C282.049 38.196 281.125 37.9907 280.285 37.58C279.464 37.1693 278.745 36.6187 278.129 35.928C277.532 35.2187 277.065 34.416 276.729 33.52C276.393 32.624 276.225 31.7 276.225 30.748C276.225 29.3853 276.515 28.1347 277.093 26.996C277.672 25.8387 278.465 24.9147 279.473 24.224C280.5 23.5147 281.676 23.16 283.001 23.16C284.252 23.16 285.335 23.4773 286.249 24.112C287.183 24.7467 287.967 25.5307 288.601 26.464V23.412H290.309V38.056C290.309 39.4187 289.983 40.5573 289.329 41.472C288.676 42.3867 287.808 43.0773 286.725 43.544C285.643 44.0107 284.457 44.244 283.169 44.244C281.489 44.244 280.136 43.9453 279.109 43.348C278.101 42.7507 277.271 41.948 276.617 40.94L277.793 40.016C278.372 40.9307 279.137 41.612 280.089 42.06C281.06 42.508 282.087 42.732 283.169 42.732C284.121 42.732 284.989 42.5547 285.773 42.2C286.576 41.864 287.211 41.3507 287.677 40.66C288.163 39.9693 288.405 39.1013 288.405 38.056V35.172C287.845 36.0867 287.08 36.824 286.109 37.384C285.139 37.9253 284.121 38.196 283.057 38.196ZM283.589 36.6C284.355 36.6 285.083 36.4227 285.773 36.068C286.464 35.7133 287.043 35.2653 287.509 34.724C287.995 34.164 288.293 33.5853 288.405 32.988V28.48C288.125 27.7707 287.724 27.1453 287.201 26.604C286.679 26.044 286.081 25.6147 285.409 25.316C284.737 24.9987 284.056 24.84 283.365 24.84C282.283 24.84 281.349 25.1387 280.565 25.736C279.8 26.3147 279.203 27.0613 278.773 27.976C278.363 28.872 278.157 29.8053 278.157 30.776C278.157 31.8213 278.4 32.792 278.885 33.688C279.371 34.5653 280.024 35.2747 280.845 35.816C281.667 36.3387 282.581 36.6 283.589 36.6ZM300.814 38.28C299.414 38.28 298.163 37.9347 297.062 37.244C295.961 36.5533 295.093 35.6293 294.458 34.472C293.823 33.3147 293.506 32.0453 293.506 30.664C293.506 29.3013 293.814 28.0507 294.43 26.912C295.065 25.7733 295.933 24.868 297.034 24.196C298.135 23.5053 299.386 23.16 300.786 23.16C302.223 23.16 303.483 23.5053 304.566 24.196C305.649 24.8867 306.489 25.8013 307.086 26.94C307.702 28.06 308.01 29.292 308.01 30.636C308.01 30.9347 308.001 31.1867 307.982 31.392H295.494C295.587 32.4373 295.886 33.3707 296.39 34.192C296.894 34.9947 297.538 35.6387 298.322 36.124C299.106 36.5907 299.965 36.824 300.898 36.824C301.85 36.824 302.746 36.5813 303.586 36.096C304.426 35.6107 305.023 34.976 305.378 34.192L307.03 34.64C306.731 35.3493 306.265 35.984 305.63 36.544C305.014 37.0853 304.295 37.5147 303.474 37.832C302.653 38.1307 301.766 38.28 300.814 38.28ZM295.438 30.02H306.218C306.143 28.9747 305.854 28.0507 305.35 27.248C304.846 26.4267 304.202 25.792 303.418 25.344C302.634 24.8773 301.766 24.644 300.814 24.644C299.862 24.644 298.994 24.8773 298.21 25.344C297.426 25.792 296.782 26.4267 296.278 27.248C295.793 28.0507 295.513 28.9747 295.438 30.02ZM318.228 25.092C316.958 25.1293 315.838 25.484 314.868 26.156C313.916 26.828 313.244 27.752 312.852 28.928V38H310.948V23.412H312.74V26.912C313.244 25.8853 313.906 25.0547 314.728 24.42C315.568 23.7853 316.454 23.4307 317.388 23.356C317.574 23.3373 317.733 23.328 317.864 23.328C317.994 23.328 318.116 23.3373 318.228 23.356V25.092Z" fill="#5A9CFF"/>
</svg>
